<svg width="155" height="34" viewBox="0 0 155 34" fill="none" xmlns="http://www.w3.org/2000/svg">
<path d="M76.9848 18.2906H76.6851C76.0261 18.2906 75.5841 18.5025 75.359 18.9264C75.1754 19.1908 75.0835 19.7741 75.0835 20.6773V25.6313C73.3154 26.6152 71.3314 27.1067 69.1304 27.1067C66.2623 27.1067 63.9604 26.3074 62.2267 24.7079C60.5676 23.173 59.738 21.2131 59.738 18.8295C59.738 16.6143 60.501 14.6586 62.0268 12.9632C63.7445 11.0437 65.9788 10.084 68.7308 10.084C69.856 10.084 70.9298 10.2576 71.951 10.6057C72.9723 10.9539 73.491 11.1275 73.5082 11.1275C73.8412 11.1275 74.0501 10.7793 74.1339 10.084H74.5961L75.0088 15.2187H74.5961C73.5869 12.3476 71.7149 10.9125 68.9811 10.9125C66.9879 10.9125 65.4167 11.624 64.2662 13.0479C63.1743 14.3911 62.6233 16.1471 62.6152 18.3138C62.598 20.6248 63.2136 22.5301 64.46 24.0297C65.7063 25.5294 67.2715 26.2792 69.1566 26.2792C70.4403 26.2792 71.6039 25.9795 72.6464 25.379V20.6763C72.6464 19.6762 72.5091 19.0323 72.2336 18.7447C71.9753 18.4803 71.3748 18.3289 70.4322 18.2886V17.8566H76.9858V18.2906H76.9848Z" fill="#293276"/>
<path d="M92.506 22.3087L91.0175 26.7228H77.8357V26.2788C78.7026 26.2788 79.3111 26.1627 79.6613 25.9306C80.1033 25.6349 80.3243 25.0708 80.3243 24.2392V12.9395C80.3243 12.108 80.1033 11.5439 79.6613 11.2482C79.3192 11.0241 78.7106 10.9121 77.8357 10.9121V10.4681H85.2148V10.9121C84.3398 10.9121 83.7303 11.0241 83.3892 11.2482C82.9472 11.5439 82.7261 12.108 82.7261 12.9395V23.6519C82.7261 24.4915 82.8765 25.0476 83.1762 25.3191C83.4517 25.5592 84.0058 25.6793 84.8394 25.6793H86.565C88.3906 25.6793 89.5915 25.4432 90.1668 24.9719C90.8752 24.3886 91.5049 23.4763 92.0549 22.2371L92.506 22.3087Z" fill="#293276"/>
<path d="M111.215 26.7239H104.536V26.2798C105.679 26.2556 106.25 25.9085 106.25 25.2363C106.25 24.9245 106.084 24.3806 105.752 23.6045L104.736 21.2663H98.1644L96.9928 23.8689C96.7112 24.4936 96.5699 24.9447 96.5699 25.2252C96.5699 25.8257 97.2289 26.1779 98.5459 26.2808V26.7249H93.2053V26.2808C93.8724 26.2324 94.4183 25.9771 94.8442 25.5129C95.1863 25.1374 95.5739 24.4613 96.0078 23.4854L101.973 10.0856H102.424L108.302 23.6055C108.777 24.7015 109.21 25.421 109.602 25.7641C109.944 26.0598 110.482 26.2324 111.216 26.2798V26.7239H111.215ZM104.383 20.3893L101.51 13.7812L98.5408 20.3893H104.383Z" fill="#293276"/>
<path d="M124.297 22.5611C124.297 23.8245 123.796 24.8923 122.796 25.7642C121.779 26.6603 120.499 27.1074 118.956 27.1074C118.056 27.1074 117.105 26.952 116.104 26.6391C115.104 26.3273 114.533 26.1709 114.391 26.1709C113.982 26.1709 113.728 26.4827 113.628 27.1064H113.19V21.5287H113.628C113.828 23.1121 114.42 24.3039 115.404 25.1032C116.271 25.8066 117.363 26.1588 118.681 26.1588C119.69 26.1588 120.51 25.8944 121.144 25.3666C121.753 24.863 122.057 24.2434 122.057 23.5077C122.057 22.7558 121.749 22.1039 121.132 21.5519C120.657 21.1361 119.602 20.4882 117.968 19.6082C115.975 18.5365 114.65 17.6403 113.991 16.9208C113.357 16.2416 113.041 15.3899 113.041 14.3656C113.041 13.1818 113.483 12.1827 114.367 11.3663C115.3 10.5105 116.501 10.0826 117.968 10.0826C118.735 10.0826 119.546 10.235 120.4 10.5388C121.255 10.8425 121.753 10.9949 121.895 10.9949C122.27 10.9949 122.537 10.6912 122.695 10.0837H123.171V15.7098H122.695C122.537 14.2303 122.011 13.0708 121.119 12.2312C120.276 11.4319 119.235 11.0313 117.993 11.0313C117.175 11.0313 116.475 11.2795 115.891 11.775C115.308 12.2705 115.016 12.8589 115.016 13.538C115.016 14.1779 115.298 14.746 115.861 15.2415C116.424 15.737 117.547 16.4213 119.232 17.2932C120.707 18.0531 121.791 18.6848 122.483 19.1884C123.692 20.0694 124.297 21.1936 124.297 22.5611Z" fill="#293276"/>
<path d="M138.542 22.5611C138.542 23.8245 138.042 24.8923 137.042 25.7642C136.025 26.6603 134.745 27.1074 133.202 27.1074C132.302 27.1074 131.351 26.952 130.35 26.6391C129.35 26.3273 128.779 26.1709 128.636 26.1709C128.228 26.1709 127.973 26.4827 127.873 27.1064H127.436V21.5287H127.873C128.073 23.1121 128.666 24.3039 129.65 25.1032C130.516 25.8066 131.608 26.1588 132.926 26.1588C133.936 26.1588 134.756 25.8944 135.39 25.3666C135.998 24.863 136.303 24.2434 136.303 23.5077C136.303 22.7558 135.994 22.1039 135.378 21.5519C134.902 21.1361 133.848 20.4882 132.214 19.6082C130.221 18.5365 128.896 17.6403 128.237 16.9208C127.603 16.2416 127.286 15.3899 127.286 14.3656C127.286 13.1818 127.728 12.1827 128.612 11.3663C129.546 10.5105 130.747 10.0826 132.214 10.0826C132.981 10.0826 133.791 10.235 134.646 10.5388C135.501 10.8425 135.998 10.9949 136.141 10.9949C136.516 10.9949 136.782 10.6912 136.941 10.0837H137.416V15.7098H136.941C136.782 14.2303 136.257 13.0708 135.365 12.2312C134.522 11.4319 133.48 11.0313 132.238 11.0313C131.421 11.0313 130.72 11.2795 130.137 11.775C129.554 12.2705 129.262 12.8589 129.262 13.538C129.262 14.1779 129.544 14.746 130.107 15.2415C130.67 15.737 131.793 16.4213 133.477 17.2932C134.953 18.0531 136.037 18.6848 136.729 19.1884C137.938 20.0694 138.542 21.1936 138.542 22.5611Z" fill="#293276"/>
<path d="M155 22.6327L153.525 26.7239H140.456V26.2798H141.056C141.632 26.2798 142.078 26.1496 142.394 25.8903C142.711 25.6309 142.87 24.9487 142.87 23.8447V13.2756C142.87 12.2362 142.766 11.6044 142.557 11.3804C142.248 11.0524 141.749 10.8889 141.056 10.8889H140.456V10.4691H153.525L153.712 14.0083H153.225C152.949 12.9608 152.732 12.3411 152.575 12.1484C152.141 11.6044 151.266 11.333 149.949 11.333H145.272V17.7624H148.986C150.062 17.7624 150.771 17.5787 151.113 17.2104C151.346 16.9541 151.534 16.3586 151.676 15.4231H152.139V21.0856H151.676C151.534 20.1259 151.342 19.5103 151.101 19.2378C150.758 18.8624 150.054 18.6737 148.987 18.6737H145.273V24.0274C145.273 24.7378 145.31 25.1728 145.386 25.3332C145.552 25.6763 145.99 25.8479 146.699 25.8479H149.55C150.901 25.8479 151.873 25.644 152.465 25.2363C152.991 24.8761 153.661 24.0092 154.478 22.6337H155V22.6327Z" fill="#293276"/>
<path d="M15.8472 16.1165C7.15017 16.062 0.0556918 23.211 0.0001873 32.0837C-0.000821873 32.3158 0.00220549 32.5459 0.0102789 32.7759C0.011288 32.8153 0.0143155 32.8537 0.0153247 32.893C0.0133063 33.225 0.453306 33.3714 0.660186 33.3714C0.897342 33.3714 1.34844 33.1867 1.35046 32.8991C1.34844 32.8607 1.34642 32.8234 1.34441 32.785C1.33532 32.5559 1.33129 32.3248 1.3333 32.0927C1.38376 23.9719 7.87779 17.4284 15.8381 17.4779C23.7975 17.5273 30.2098 24.1516 30.1583 32.2734C30.1573 32.3864 30.1553 32.4994 30.1523 32.6114C30.1512 32.6599 30.1482 32.7083 30.1462 32.7568C30.1734 33.1847 30.5791 33.3623 30.8032 33.3794C31.0222 33.3966 31.4178 33.2361 31.4773 32.8607C31.4793 32.8113 31.4823 32.7628 31.4833 32.7134C31.4884 32.5701 31.4904 32.4258 31.4914 32.2814C31.5489 23.4078 24.5443 16.171 15.8472 16.1165Z" fill="#293276"/>
<path d="M47.374 11.1846C39.4782 7.53949 29.9597 11.338 26.1137 19.6697C26.0128 19.8877 25.9179 20.1057 25.8271 20.3257C25.812 20.363 25.7968 20.4004 25.7817 20.4377C25.6374 20.7496 25.9755 21.0685 26.1652 21.1542C26.3812 21.2521 26.8716 21.2652 26.9957 20.9948C27.0109 20.9585 27.024 20.9211 27.0391 20.8848C27.129 20.6648 27.2238 20.4468 27.3247 20.2288C30.8447 12.6035 39.5569 9.12692 46.7836 12.4632C54.0103 15.7996 57.0156 24.6853 53.4966 32.3106C53.4472 32.4166 53.3977 32.5216 53.3473 32.6265C53.3251 32.6719 53.3018 32.7163 53.2796 32.7617C53.1212 33.1755 53.4149 33.5105 53.6117 33.6195C53.8044 33.7265 54.2323 33.7386 54.4473 33.4096C54.4705 33.3642 54.4937 33.3188 54.5159 33.2734C54.5815 33.1402 54.6451 33.006 54.7086 32.8697C58.5536 24.538 55.2707 14.8298 47.374 11.1846Z" fill="#293276"/>
<path d="M42.6283 10.4066C42.6152 10.3632 42.6041 10.3188 42.59 10.2754C42.5516 10.1483 42.5113 10.0221 42.4689 9.89597C39.8713 2.12836 31.1389 -1.90631 22.9646 0.884053C15.854 3.31111 11.5085 10.1018 12.2068 16.94C12.2553 16.9087 12.3128 16.8875 12.3814 16.8825C12.4097 16.8673 12.44 16.8552 12.4753 16.8461C12.6337 16.8058 12.7982 16.8048 12.9587 16.7735C13.1464 16.7371 13.3179 16.6877 13.5097 16.6978C12.9092 10.4631 16.8803 4.28799 23.3632 2.07488C30.8452 -0.47833 38.8379 3.21423 41.2155 10.3228C41.2488 10.4217 41.2801 10.5206 41.3114 10.6195C41.3245 10.6629 41.3366 10.7053 41.3497 10.7487C41.5031 11.114 41.9361 11.1362 42.152 11.0787C42.3619 11.0232 42.6849 10.7538 42.6283 10.4066Z" fill="#293276"/>
</svg>
