<svg width="309" height="171" viewBox="0 0 309 171" fill="none" xmlns="http://www.w3.org/2000/svg">
<path d="M56.4099 142.483H55.4406C53.3092 142.483 51.8796 143.169 51.1518 144.54C50.5577 145.395 50.2607 147.281 50.2607 150.203V166.225C44.5423 169.407 38.1255 170.997 31.0069 170.997C21.7308 170.997 14.2859 168.412 8.67846 163.239C3.31259 158.274 0.629639 151.936 0.629639 144.226C0.629639 137.062 3.09717 130.737 8.03221 125.253C13.5874 119.045 20.8137 115.941 29.7144 115.941C33.3537 115.941 36.8264 116.503 40.1295 117.629C43.4326 118.755 45.1103 119.316 45.1657 119.316C46.2428 119.316 46.9185 118.19 47.1894 115.941H48.6843L50.0192 132.548H48.6843C45.4203 123.262 39.3658 118.621 30.5238 118.621C24.0776 118.621 18.9957 120.922 15.2748 125.527C11.7433 129.872 9.96117 135.551 9.93506 142.558C9.87957 150.033 11.8706 156.195 15.9015 161.045C19.9324 165.895 24.9948 168.321 31.0918 168.321C35.2434 168.321 39.0067 167.351 42.3784 165.409V150.199C42.3784 146.965 41.9345 144.882 41.0434 143.952C40.2079 143.097 38.2658 142.607 35.2173 142.477V141.08H56.4132V142.483H56.4099Z" fill="#293276"/>
<path d="M106.609 155.48L101.795 169.756H59.1616V168.32C61.9653 168.32 63.9335 167.945 65.066 167.194C66.4956 166.238 67.2104 164.413 67.2104 161.724V125.178C67.2104 122.488 66.4956 120.664 65.066 119.708C63.9596 118.983 61.9914 118.621 59.1616 118.621V117.185H83.0274V118.621C80.1975 118.621 78.2262 118.983 77.1229 119.708C75.6934 120.664 74.9786 122.488 74.9786 125.178V159.824C74.9786 162.54 75.4649 164.338 76.4342 165.216C77.3253 165.993 79.1172 166.382 81.8132 166.382H87.3945C93.2989 166.382 97.183 165.618 99.0434 164.094C101.335 162.207 103.371 159.256 105.15 155.248L106.609 155.48Z" fill="#293276"/>
<path d="M167.119 169.76H145.518V168.324C149.213 168.245 151.06 167.122 151.06 164.949C151.06 163.94 150.525 162.181 149.451 159.671L146.164 152.108H124.91L121.12 160.526C120.21 162.546 119.753 164.005 119.753 164.913C119.753 166.855 121.884 167.994 126.143 168.327V169.763H108.871V168.327C111.028 168.17 112.794 167.344 114.171 165.843C115.278 164.629 116.531 162.442 117.935 159.286L137.228 115.948H138.687L157.696 159.674C159.233 163.219 160.633 165.546 161.903 166.656C163.009 167.612 164.749 168.17 167.122 168.324V169.76H167.119ZM145.022 149.272L135.73 127.9L126.127 149.272H145.022Z" fill="#293276"/>
<path d="M209.429 156.296C209.429 160.382 207.81 163.836 204.575 166.656C201.285 169.554 197.147 171 192.156 171C189.245 171 186.17 170.497 182.932 169.486C179.698 168.477 177.851 167.971 177.39 167.971C176.068 167.971 175.246 168.98 174.923 170.997H173.506V152.957H174.923C175.569 158.078 177.485 161.933 180.667 164.518C183.471 166.793 187.003 167.932 191.265 167.932C194.529 167.932 197.183 167.077 199.232 165.37C201.201 163.741 202.186 161.737 202.186 159.358C202.186 156.926 201.187 154.817 199.193 153.032C197.656 151.687 194.245 149.592 188.961 146.746C182.515 143.28 178.229 140.381 176.098 138.054C174.048 135.857 173.023 133.103 173.023 129.79C173.023 125.961 174.453 122.73 177.312 120.089C180.331 117.322 184.215 115.938 188.961 115.938C191.441 115.938 194.062 116.431 196.827 117.413C199.591 118.395 201.201 118.888 201.661 118.888C202.875 118.888 203.737 117.906 204.249 115.941H205.786V134.137H204.249C203.737 129.352 202.036 125.602 199.151 122.887C196.425 120.302 193.057 119.006 189.039 119.006C186.395 119.006 184.13 119.809 182.244 121.411C180.357 123.014 179.414 124.917 179.414 127.113C179.414 129.183 180.325 131.02 182.146 132.623C183.967 134.225 187.6 136.438 193.047 139.258C197.819 141.716 201.325 143.759 203.564 145.388C207.474 148.237 209.429 151.873 209.429 156.296Z" fill="#293276"/>
<path d="M255.502 156.296C255.502 160.382 253.883 163.836 250.649 166.656C247.359 169.554 243.22 171 238.23 171C235.318 171 232.244 170.497 229.006 169.486C225.771 168.477 223.924 167.971 223.464 167.971C222.142 167.971 221.319 168.98 220.996 170.997H219.58V152.957H220.996C221.643 158.078 223.558 161.933 226.741 164.518C229.544 166.793 233.076 167.932 237.339 167.932C240.603 167.932 243.256 167.077 245.306 165.37C247.274 163.741 248.26 161.737 248.26 159.358C248.26 156.926 247.261 154.817 245.267 153.032C243.729 151.687 240.319 149.592 235.034 146.746C228.588 143.28 224.303 140.381 222.171 138.054C220.122 135.857 219.097 133.103 219.097 129.79C219.097 125.961 220.526 122.73 223.385 120.089C226.405 117.322 230.289 115.938 235.034 115.938C237.515 115.938 240.136 116.431 242.9 117.413C245.665 118.395 247.274 118.888 247.734 118.888C248.948 118.888 249.81 117.906 250.323 115.941H251.86V134.137H250.323C249.81 129.352 248.11 125.602 245.224 122.887C242.499 120.302 239.131 119.006 235.113 119.006C232.469 119.006 230.204 119.809 228.317 121.411C226.431 123.014 225.487 124.917 225.487 127.113C225.487 129.183 226.398 131.02 228.219 132.623C230.041 134.225 233.673 136.438 239.121 139.258C243.893 141.716 247.398 143.759 249.637 145.388C253.547 148.237 255.502 151.873 255.502 156.296Z" fill="#293276"/>
<path d="M308.73 156.528L303.958 169.76H261.691V168.324H263.633C265.493 168.324 266.936 167.903 267.961 167.064C268.986 166.225 269.498 164.018 269.498 160.448V126.265C269.498 122.903 269.162 120.86 268.486 120.135C267.487 119.074 265.872 118.546 263.633 118.546H261.691V117.188H303.958L304.565 128.634H302.989C302.098 125.246 301.396 123.242 300.887 122.619C299.484 120.86 296.654 119.982 292.394 119.982H277.266V140.776H289.281C292.76 140.776 295.051 140.182 296.158 138.991C296.912 138.162 297.519 136.236 297.979 133.21H299.477V151.524H297.979C297.519 148.42 296.899 146.429 296.118 145.548C295.012 144.334 292.734 143.723 289.284 143.723H277.269V161.039C277.269 163.336 277.39 164.743 277.635 165.262C278.173 166.372 279.59 166.927 281.881 166.927H291.105C295.472 166.927 298.615 166.267 300.531 164.949C302.232 163.783 304.399 160.98 307.043 156.531H308.73V156.528Z" fill="#293276"/>
<path d="M104.137 52.1248C76.0087 51.9485 53.0634 75.0701 52.8839 103.766C52.8806 104.517 52.8904 105.261 52.9165 106.005C52.9198 106.133 52.9296 106.257 52.9329 106.384C52.9263 107.458 54.3494 107.931 55.0185 107.931C55.7855 107.931 57.2445 107.334 57.251 106.404C57.2445 106.28 57.238 106.159 57.2314 106.035C57.2021 105.294 57.189 104.547 57.1955 103.796C57.3587 77.5311 78.362 56.3679 104.108 56.5278C129.85 56.6877 150.589 78.1121 150.423 104.38C150.419 104.746 150.413 105.111 150.403 105.473C150.4 105.63 150.39 105.787 150.384 105.943C150.472 107.327 151.784 107.902 152.508 107.957C153.217 108.013 154.496 107.494 154.689 106.28C154.695 106.12 154.705 105.963 154.708 105.803C154.725 105.34 154.731 104.873 154.734 104.406C154.92 75.7066 132.266 52.301 104.137 52.1248Z" fill="#293276"/>
<path d="M206.102 36.174C180.565 24.3847 149.78 36.6701 137.341 63.617C137.015 64.322 136.708 65.027 136.414 65.7385C136.365 65.8593 136.316 65.98 136.267 66.1008C135.801 67.1094 136.894 68.1408 137.508 68.4182C138.206 68.7348 139.792 68.7772 140.194 67.9025C140.243 67.785 140.285 67.6642 140.334 67.5467C140.625 66.8352 140.931 66.1302 141.258 65.4252C152.642 40.763 180.82 29.5189 204.193 40.3094C227.566 51.0999 237.285 79.8386 225.904 104.501C225.744 104.843 225.584 105.183 225.421 105.522C225.349 105.669 225.274 105.813 225.202 105.96C224.69 107.298 225.64 108.382 226.276 108.734C226.9 109.08 228.284 109.119 228.979 108.055C229.054 107.908 229.129 107.761 229.201 107.615C229.413 107.184 229.619 106.75 229.824 106.309C242.26 79.3621 231.642 47.9632 206.102 36.174Z" fill="#293276"/>
<path d="M190.755 33.6575C190.712 33.5172 190.677 33.3736 190.631 33.2332C190.507 32.822 190.376 32.414 190.239 32.006C181.838 6.88365 153.595 -6.16548 127.158 2.85925C104.16 10.709 90.1056 32.6718 92.3642 54.7881C92.5209 54.6869 92.707 54.6184 92.9289 54.6021C93.0203 54.5531 93.1182 54.5139 93.2324 54.4846C93.7449 54.354 94.2769 54.3507 94.7959 54.2496C95.4029 54.1321 95.9578 53.9721 96.578 54.0048C94.6359 33.8403 107.479 13.8684 128.447 6.71066C152.645 -1.54704 178.496 10.3956 186.185 33.3866C186.293 33.7065 186.394 34.0264 186.496 34.3462C186.538 34.4866 186.577 34.6237 186.62 34.764C187.116 35.9455 188.516 36.0173 189.214 35.8313C189.893 35.6518 190.938 34.7803 190.755 33.6575Z" fill="#293276"/>
</svg>
